<svg width="32" height="33" viewBox="0 0 32 33" fill="none" xmlns="http://www.w3.org/2000/svg">
<path d="M14.7327 20.0323L12.266 22.499C11.746 23.019 10.9193 23.019 10.386 22.5123C10.2393 22.3656 10.0927 22.2323 9.94602 22.0856C8.57268 20.699 7.33268 19.2456 6.22602 17.7256C5.13268 16.2056 4.25268 14.6856 3.61268 13.179C2.98602 11.659 2.66602 10.2056 2.66602 8.81896C2.66602 7.91229 2.82602 7.04563 3.14602 6.24563C3.46602 5.43229 3.97268 4.68563 4.67935 4.01896C5.53268 3.17896 6.46602 2.76562 7.45268 2.76562C7.82602 2.76562 8.19935 2.84563 8.53268 3.00563C8.87935 3.16563 9.18602 3.40563 9.42602 3.75229L12.5194 8.11229C12.7593 8.44563 12.9327 8.75229 13.0527 9.04563C13.1727 9.32563 13.2393 9.60563 13.2393 9.85896C13.2393 10.179 13.146 10.499 12.9593 10.8056C12.786 11.1123 12.5327 11.4323 12.2127 11.7523L11.1993 12.8056C11.0527 12.9523 10.986 13.1256 10.986 13.339C10.986 13.4456 10.9993 13.539 11.026 13.6456C11.066 13.7523 11.106 13.8323 11.1327 13.9123C11.3727 14.3523 11.786 14.9256 12.3727 15.619C12.9727 16.3123 13.6127 17.019 14.306 17.7256C14.4393 17.859 14.586 17.9923 14.7193 18.1256C15.2527 18.6456 15.266 19.499 14.7327 20.0323Z" fill="#ED5B28"/>
<path d="M29.2941 24.5384C29.2941 24.9117 29.2274 25.2984 29.0941 25.6717C29.0541 25.7784 29.0141 25.885 28.9608 25.9917C28.7341 26.4717 28.4408 26.925 28.0541 27.3517C27.4008 28.0717 26.6808 28.5917 25.8674 28.925C25.8541 28.925 25.8408 28.9384 25.8274 28.9384C25.0408 29.2584 24.1874 29.4317 23.2674 29.4317C21.9074 29.4317 20.4541 29.1117 18.9208 28.4584C17.3874 27.805 15.8541 26.925 14.3341 25.8184C13.8141 25.4317 13.2941 25.045 12.8008 24.6317L17.1608 20.2717C17.5341 20.5517 17.8674 20.765 18.1474 20.9117C18.2141 20.9384 18.2941 20.9784 18.3874 21.0184C18.4941 21.0584 18.6008 21.0717 18.7208 21.0717C18.9474 21.0717 19.1208 20.9917 19.2674 20.845L20.2808 19.845C20.6141 19.5117 20.9341 19.2584 21.2408 19.0984C21.5474 18.9117 21.8541 18.8184 22.1874 18.8184C22.4408 18.8184 22.7074 18.8717 23.0008 18.9917C23.2941 19.1117 23.6008 19.285 23.9341 19.5117L28.3474 22.645C28.6941 22.885 28.9341 23.165 29.0808 23.4984C29.2141 23.8317 29.2941 24.165 29.2941 24.5384Z" fill="#ED5B28"/>
</svg>
