<svg width="23" height="18" viewBox="0 0 23 18" fill="none" xmlns="http://www.w3.org/2000/svg">
<g id="Egypt (EG)" clip-path="url(#clip0_650_3391)">
<path id="Vector" d="M0 11.833H23V17.4997H0V11.833Z" fill="#000001"/>
<path id="Vector_2" d="M0 6.16699H23V11.8337H0V6.16699Z" fill="white"/>
<path id="Vector_3" d="M0 0.5H23V6.16667H0V0.5Z" fill="#CE1126"/>
<g id="Group">
<path id="Vector_4" d="M11.5232 9.06775L13.4926 10.8698L13.3517 7.59725C13.3316 7.10142 12.8946 7.21475 12.5754 7.39325C12.2563 7.59725 11.8854 7.59725 11.5002 7.46408C11.1121 7.59725 10.7441 7.59725 10.4249 7.39325C10.1087 7.21475 9.66881 7.10142 9.64869 7.59725L9.50781 10.8698L11.5232 9.06775Z" fill="white" stroke="#C09300" strokeWidth="0.13" strokeLinejoin="round"/>
<path id="a" d="M9.87581 7.48438L9.73781 10.6662L9.50781 10.8702L9.64869 7.59771C9.71661 7.54637 9.79363 7.50794 9.87581 7.48438ZM10.1518 7.71104L10.0368 10.3744L9.80681 10.6067L9.94481 7.53254C9.99081 7.57787 10.1259 7.68837 10.1518 7.71104ZM10.4019 7.91504L10.3128 10.1364L10.1259 10.3149L10.2409 7.78187C10.2869 7.82437 10.3789 7.88954 10.4019 7.91504ZM10.6751 8.02838L10.5859 9.92104L10.4048 10.0655L10.4939 7.96037C10.5399 7.98021 10.6291 8.02838 10.6751 8.02838ZM10.9281 8.02838L10.8619 9.60654L10.6751 9.78504L10.7469 8.04821C10.7901 8.04821 10.9079 8.04821 10.9281 8.02838Z" fill="#C09300"/>
<path id="a_2" d="M13.1242 7.48438L13.2622 10.6662L13.4922 10.8702L13.3513 7.59771C13.2834 7.54637 13.2064 7.50794 13.1242 7.48438ZM12.8482 7.71104L12.9632 10.3744L13.1932 10.6067L13.0552 7.53254C13.0092 7.57787 12.8741 7.68837 12.8482 7.71104ZM12.5981 7.91504L12.6872 10.1364L12.8741 10.3149L12.7591 7.78187C12.7131 7.82437 12.6211 7.88954 12.5981 7.91504ZM12.3249 8.02838L12.4141 9.92104L12.5952 10.0655L12.5061 7.96037C12.4601 7.98021 12.3709 8.02838 12.3249 8.02838ZM12.0719 8.02838L12.1381 9.60654L12.3249 9.78504L12.2531 8.04821C12.2099 8.04821 12.0921 8.04821 12.0719 8.02838Z" fill="#C09300"/>
<path id="Vector_5" d="M11.5928 9.4248L11.8688 10.6658L11.7768 10.7565L11.6819 10.6856L11.5267 9.58064L11.5928 10.6856L11.5008 10.799L11.4117 10.6856L11.4778 9.58064L11.3197 10.6856L11.2248 10.7565L11.1328 10.6658L11.4088 9.42764H11.5928V9.4248Z" fill="#C09300" stroke="#C09300" strokeWidth="0.11"/>
<g id="b">
<path id="Vector_6" d="M10.8812 8.88086L10.332 10.799L11.0882 10.9124L11.4073 9.47019L10.8812 8.88086Z" fill="white" stroke="#C09300" strokeWidth="0.12" strokeLinejoin="round"/>
<path id="Vector_7" d="M10.6992 9.53787L10.7653 9.69371L11.1218 9.35938" stroke="#C09300" strokeWidth="0.13" strokeLinejoin="round"/>
<path id="Vector_8" d="M10.9481 9.1416L11.0229 9.8301L11.25 9.53543M11.158 9.64877L11.2816 10.0738M11.3305 9.91793L11.0804 10.2919M11.158 10.6659L11.0775 10.2919M11.0775 10.2919L11.0085 9.91227L10.8389 10.1361L10.767 9.87827L10.5312 10.1163L10.6491 10.5469L10.8159 10.2806L10.905 10.5526L11.0775 10.2919Z" stroke="#C09300" strokeWidth="0.13" strokeLinejoin="round"/>
<path id="Vector_9" d="M10.4922 10.7564L10.6446 10.5439L10.7423 10.8698L10.8803 10.6431L10.9694 10.9151" stroke="#C09300" strokeWidth="0.13" strokeLinejoin="round"/>
</g>
<g id="b_2">
<path id="Vector_10" d="M12.1188 8.88086L12.668 10.799L11.9118 10.9124L11.5927 9.47019L12.1188 8.88086Z" fill="white" stroke="#C09300" strokeWidth="0.12" strokeLinejoin="round"/>
<path id="Vector_11" d="M12.3008 9.53787L12.2347 9.69371L11.8782 9.35938" stroke="#C09300" strokeWidth="0.13" strokeLinejoin="round"/>
<path id="Vector_12" d="M12.0519 9.1416L11.9771 9.8301L11.75 9.53543M11.842 9.64877L11.7184 10.0738M11.6695 9.91793L11.9196 10.2919M11.842 10.6659L11.9225 10.2919M11.9225 10.2919L11.9915 9.91227L12.1611 10.1361L12.233 9.87827L12.4688 10.1163L12.3509 10.5469L12.1841 10.2806L12.095 10.5526L11.9225 10.2919Z" stroke="#C09300" strokeWidth="0.13" strokeLinejoin="round"/>
<path id="Vector_13" d="M12.5078 10.7564L12.3554 10.5439L12.2577 10.8698L12.1197 10.6431L12.0306 10.9151" stroke="#C09300" strokeWidth="0.13" strokeLinejoin="round"/>
</g>
<g id="Group_2">
<path id="Vector_14" d="M11.5011 11.6575C12.0761 11.6575 12.6223 11.6122 12.9443 11.5244C13.0795 11.4989 13.0795 11.4309 13.0795 11.3402C13.2175 11.2949 13.1485 11.1362 13.2433 11.1362C13.1456 11.1645 13.1283 10.9804 13.0133 11.003C13.0133 10.8444 12.8495 10.8245 12.7143 10.8699C12.4412 10.9577 11.9582 10.9804 11.5011 10.9804C11.0411 10.9577 10.5638 10.9577 10.2878 10.867C10.1527 10.8245 9.99172 10.8444 9.99172 11.003C9.87672 10.9804 9.85659 11.1617 9.76172 11.1362C9.85659 11.1362 9.78472 11.2977 9.92272 11.3402C9.92272 11.4309 9.92272 11.4989 10.0607 11.5244C10.377 11.6122 10.929 11.6575 11.5011 11.6575Z" fill="white" stroke="#C09300" strokeWidth="0.24" strokeLinecap="round" strokeLinejoin="round"/>
<path id="Vector_15" d="M10.7214 10.7994C10.9054 10.8249 11.1124 10.8448 11.2734 10.8249C11.3654 10.8249 11.4316 10.9808 11.2476 11.0034C11.0894 11.0233 10.8364 11.0034 10.7013 10.9808C10.5235 10.9501 10.347 10.9123 10.1723 10.8674C10.0113 10.7994 10.1263 10.6691 10.2183 10.6861C10.3825 10.7379 10.5508 10.7758 10.7214 10.7994ZM12.2797 10.7994C12.0957 10.8249 11.8887 10.8448 11.7334 10.8249C11.6357 10.8249 11.5696 10.9808 11.7536 11.0034C11.9146 11.0233 12.1647 11.0034 12.2998 10.9808C12.4148 10.9581 12.6678 10.9156 12.8288 10.8674C12.9898 10.7994 12.8748 10.6691 12.7828 10.6861C12.6187 10.7379 12.4504 10.7759 12.2797 10.7994Z" fill="white" stroke="#C09300" strokeWidth="0.13" strokeLinecap="round" strokeLinejoin="round"/>
<path id="Vector_16" d="M10.15 10.7117C10.012 10.6862 9.94878 10.8449 9.9919 10.9356C10.012 10.8902 10.1069 10.8902 10.127 10.8449C10.1529 10.7769 10.1069 10.7769 10.1529 10.7117H10.15ZM10.702 11.1282C10.702 11.0376 10.7912 11.0489 10.7912 10.9582C10.7912 10.9157 10.7682 10.8449 10.7222 10.8449C10.6982 10.8462 10.6756 10.8562 10.6586 10.8729C10.6417 10.8897 10.6315 10.912 10.6302 10.9356C10.61 11.0234 10.702 11.0376 10.702 11.1282ZM11.3547 10.8704C11.4898 10.8704 11.4754 11.0489 11.4122 11.1396C11.4122 11.0744 11.2972 11.0489 11.2972 11.0036C11.2972 10.9356 11.4007 10.9356 11.3547 10.8704ZM12.8497 10.7117C12.9905 10.6862 13.0567 10.8449 13.0107 10.9356C12.9905 10.8902 12.8957 10.8902 12.8755 10.8449C12.8497 10.7769 12.8957 10.7769 12.8497 10.7117ZM12.3063 11.1254C12.3063 11.0347 12.2143 11.0461 12.2143 10.9554C12.2143 10.9129 12.2373 10.8421 12.2833 10.8421C12.3072 10.8434 12.3298 10.8534 12.3468 10.8701C12.3638 10.8868 12.3739 10.9091 12.3753 10.9327C12.3954 11.0206 12.3034 11.0347 12.3034 11.1254H12.3063ZM11.645 10.8704C11.5099 10.8704 11.5243 11.0489 11.5875 11.1396C11.5875 11.0744 11.7025 11.0489 11.7025 11.0036C11.7025 10.9356 11.599 10.9356 11.645 10.8704Z" fill="white" stroke="#C09300" strokeWidth="0.13" strokeLinecap="round" strokeLinejoin="round"/>
<path id="Vector_17" d="M10.1992 10.7568C10.2452 10.7568 10.3142 10.7767 10.3343 10.8022L10.1992 10.7568ZM10.4263 10.8248C10.4493 10.8248 10.5413 10.8447 10.5845 10.8702L10.4263 10.8248ZM11.2486 10.9155C11.2055 10.9155 11.1135 10.9155 11.0905 10.9353L11.2486 10.9127V10.9155ZM10.9985 10.9155C10.9726 10.89 10.8835 10.89 10.8375 10.9155H10.9985ZM12.804 10.7568C12.7552 10.7574 12.7079 10.7733 12.6688 10.8022L12.804 10.7568ZM12.5797 10.8248C12.551 10.8248 12.4647 10.8447 12.4187 10.8702L12.5797 10.8248ZM11.7546 10.9155C11.7977 10.9155 11.8897 10.9155 11.9156 10.9353L11.7546 10.9127V10.9155ZM12.0047 10.9155C12.0306 10.89 12.1197 10.89 12.1657 10.9155H12.0047Z" fill="white" stroke="#C09300" strokeWidth="0.09" strokeLinecap="round" strokeLinejoin="round"/>
<g id="Group_3">
<path id="Vector_18" d="M10.1577 11.1133C10.1433 11.1104 10.1347 11.0963 10.1405 11.0849C10.1433 11.0651 10.1577 11.0566 10.1692 11.0623C10.1807 11.0623 10.1951 11.0793 10.1951 11.0849L10.1836 11.1048L10.1778 11.1076C10.1778 11.1133 10.1663 11.1133 10.1577 11.1133ZM11.739 11.2238C11.7332 11.2238 11.7217 11.2096 11.7217 11.2039C11.7217 11.1926 11.739 11.1756 11.7505 11.1756L11.7735 11.1869C11.7821 11.1954 11.7821 11.2124 11.7706 11.2209C11.7648 11.2266 11.7476 11.2266 11.739 11.2209V11.2238ZM11.7476 11.2946C11.7361 11.2889 11.7332 11.2833 11.7303 11.2719C11.7303 11.2578 11.7303 11.2549 11.7447 11.2464L11.7562 11.2408L11.7677 11.2464C11.7792 11.2521 11.7878 11.2578 11.7878 11.2691C11.7878 11.2776 11.7792 11.2861 11.7677 11.2918C11.7591 11.2974 11.7562 11.2974 11.7476 11.2918V11.2946Z" fill="#C09300"/>
<path id="Vector_19" d="M10.2874 10.9834C10.2759 10.9834 10.2615 10.9947 10.2529 11.0004C10.2357 11.0032 10.2127 11.0146 10.1954 11.0004C10.1782 10.9976 10.1552 11.0004 10.1523 11.0231C10.1552 11.0429 10.181 11.0514 10.1983 11.0401C10.2098 11.0259 10.2414 11.0146 10.2472 11.0401C10.2328 11.0627 10.2357 11.0882 10.2242 11.1081C10.2242 11.1222 10.2155 11.1336 10.2098 11.1449C10.1954 11.1449 10.181 11.1449 10.1695 11.1534C10.1606 11.1534 10.1518 11.1554 10.1438 11.1594C10.1358 11.1633 10.1289 11.169 10.1235 11.1761C10.112 11.1931 10.1005 11.2101 10.0977 11.2327C10.1005 11.2497 10.1264 11.2554 10.1437 11.2582L10.2012 11.2752L10.2932 11.3007C10.3392 11.3149 10.3852 11.3206 10.4312 11.3319L10.4455 11.3347C10.4657 11.3404 10.4743 11.3206 10.4743 11.3064L10.503 11.2044C10.5088 11.1902 10.5174 11.1619 10.4915 11.1676C10.4772 11.1761 10.4628 11.1902 10.4455 11.1902C10.4197 11.1902 10.434 11.2186 10.4455 11.2271C10.4455 11.2441 10.4398 11.2639 10.4312 11.2781C10.4139 11.2866 10.3967 11.2781 10.3794 11.2724C10.365 11.2724 10.3305 11.2639 10.3449 11.2441L10.3593 11.1931C10.3679 11.1761 10.3679 11.1562 10.3737 11.1364C10.3622 11.1166 10.3449 11.1449 10.3305 11.1477C10.319 11.1534 10.2845 11.1562 10.3018 11.1761C10.319 11.1874 10.3075 11.2072 10.3018 11.2242C10.3018 11.2441 10.2788 11.2526 10.2615 11.2441C10.2443 11.2441 10.2184 11.2299 10.2328 11.2129L10.2472 11.1619L10.2673 11.1052C10.2673 11.0854 10.2759 11.0712 10.2845 11.0542C10.2845 11.0344 10.2989 11.0174 10.2989 10.9976C10.2989 10.9891 10.2932 10.9862 10.2874 10.9862V10.9834ZM10.181 11.1902C10.1823 11.1895 10.1838 11.1891 10.1853 11.1891C10.1869 11.1891 10.1883 11.1895 10.1897 11.1902C10.1954 11.1959 10.1954 11.2016 10.1897 11.2072L10.181 11.2129C10.1667 11.2129 10.1638 11.2101 10.1638 11.2044C10.1638 11.2016 10.1638 11.1987 10.1724 11.1959C10.1759 11.1934 10.1798 11.1915 10.1839 11.1902H10.181ZM10.1523 11.3319C10.1379 11.3206 10.1408 11.3121 10.1609 11.2951C10.1724 11.2894 10.1753 11.2894 10.1868 11.2979C10.204 11.3121 10.204 11.3206 10.1868 11.3347C10.181 11.3404 10.1782 11.3404 10.1724 11.3404C10.1638 11.3404 10.1609 11.3404 10.1523 11.3347V11.3319ZM10.2385 11.3602C10.2321 11.3583 10.2267 11.3539 10.2235 11.3481C10.2203 11.3423 10.2195 11.3355 10.2213 11.3291C10.227 11.3177 10.2299 11.3149 10.2472 11.3149C10.2673 11.3149 10.2702 11.3177 10.273 11.3347C10.273 11.3461 10.273 11.3489 10.2644 11.3546C10.2612 11.3571 10.2575 11.3589 10.2535 11.3598C10.2496 11.3608 10.2454 11.361 10.2414 11.3602H10.2385ZM12.803 11.3602C12.7973 11.3574 12.7944 11.3546 12.7944 11.3461C12.7944 11.3347 12.8002 11.3262 12.8174 11.3206C12.8347 11.3121 12.8462 11.3121 12.8519 11.3262C12.8605 11.3432 12.8605 11.3489 12.849 11.3602C12.8433 11.3687 12.8404 11.3687 12.826 11.3687C12.8117 11.3687 12.8088 11.3687 12.803 11.3631V11.3602ZM10.3593 11.3942C10.3478 11.3942 10.342 11.3829 10.342 11.3716C10.342 11.3631 10.342 11.3602 10.3478 11.3546L10.365 11.3489L10.3823 11.3517C10.3967 11.3631 10.3995 11.3744 10.3909 11.3857C10.3823 11.3971 10.3737 11.3971 10.3564 11.3942H10.3593ZM10.986 11.4226L10.9803 11.4141C10.9803 11.3971 10.9803 11.3829 10.986 11.3659C10.9889 11.3517 10.986 11.3376 10.9918 11.3234L11.0033 11.2441C11.0033 11.2299 11.0033 11.2157 11.009 11.2044C11.0119 11.1817 11.009 11.1619 11.0148 11.1421C11.0148 11.1336 11.0234 11.1137 11.032 11.1251C11.0435 11.1421 11.0579 11.1534 11.0723 11.1676C11.0838 11.1761 11.0723 11.1874 11.0637 11.1902C11.0522 11.1931 11.0493 11.2072 11.0493 11.2186L11.0435 11.2526C11.0435 11.2724 11.0435 11.2894 11.0378 11.3092L11.0349 11.3602L11.0292 11.3942C11.0292 11.4056 11.0292 11.4197 11.0177 11.4254C11.009 11.4311 10.9947 11.4311 10.9889 11.4226H10.986ZM11.8399 11.1449L11.8025 11.1789C11.7853 11.1931 11.8169 11.1987 11.8198 11.2101C11.8255 11.2271 11.8255 11.2441 11.8255 11.2611C11.8313 11.2781 11.8342 11.2922 11.8313 11.3092C11.8313 11.3291 11.8083 11.3234 11.7968 11.3347C11.7824 11.3404 11.7767 11.3546 11.768 11.3631C11.7612 11.3773 11.7573 11.3927 11.7565 11.4084C11.7565 11.4226 11.7479 11.4367 11.7565 11.4481L11.7594 11.4537H11.7738L11.8169 11.4509C11.8514 11.4452 11.8888 11.4452 11.9233 11.4424L11.9865 11.4367C12.0038 11.4396 12.0124 11.4226 12.0124 11.4084C12.0009 11.3886 12.0095 11.3687 12.0009 11.3517C11.9952 11.3291 11.998 11.3092 11.9952 11.2894C11.9952 11.2724 11.975 11.2667 11.9664 11.2781C11.9549 11.2894 11.9377 11.2922 11.9319 11.3036C11.9233 11.3206 11.9492 11.3206 11.9549 11.3319L11.9578 11.3744C11.9607 11.3914 11.9434 11.3914 11.929 11.3942C11.9147 11.3999 11.8945 11.4027 11.8859 11.3857C11.8802 11.3716 11.8802 11.3574 11.8802 11.3432C11.8802 11.3149 11.8715 11.2922 11.8715 11.2667C11.8715 11.2384 11.8629 11.2072 11.8629 11.1761C11.8629 11.1619 11.86 11.1421 11.8399 11.1449ZM11.8227 11.3772H11.8313V11.3999L11.8227 11.4027C11.8189 11.4039 11.8151 11.4049 11.8112 11.4056C11.8092 11.4056 11.8073 11.4056 11.8054 11.4056C11.7997 11.3999 11.7997 11.3914 11.8083 11.3829L11.8227 11.3772ZM10.9602 11.1166C10.9515 11.1166 10.9372 11.1364 10.9257 11.1336C10.8998 11.1364 10.9027 11.1619 10.9228 11.1704V11.1931C10.9257 11.2157 10.9113 11.2356 10.9142 11.2582C10.9142 11.2809 10.9055 11.3064 10.9055 11.3319C10.8969 11.3574 10.8969 11.3829 10.894 11.4084C10.8912 11.4311 10.8739 11.4226 10.8595 11.4169V11.3886C10.8624 11.3631 10.8452 11.3574 10.825 11.3546C10.8049 11.3546 10.7963 11.3404 10.802 11.3234C10.8107 11.3121 10.8308 11.3149 10.8452 11.3149C10.8739 11.3206 10.871 11.2837 10.8567 11.2696C10.8452 11.2526 10.8222 11.2412 10.8164 11.2242C10.8164 11.2016 10.802 11.1761 10.7819 11.1647C10.7503 11.1619 10.7244 11.1874 10.7158 11.2157C10.7014 11.2157 10.687 11.2214 10.6755 11.2271C10.6554 11.2327 10.6267 11.2667 10.6554 11.2809C10.6698 11.2837 10.7187 11.2951 10.6957 11.3149C10.6842 11.3376 10.6612 11.3376 10.641 11.3319C10.6209 11.3319 10.5979 11.3206 10.5979 11.2979C10.595 11.2752 10.595 11.2526 10.5864 11.2327C10.5807 11.2101 10.5548 11.2157 10.5519 11.2384C10.5318 11.2526 10.5347 11.2781 10.549 11.2951C10.5577 11.3149 10.549 11.3404 10.5404 11.3574C10.5347 11.3857 10.5059 11.3857 10.4858 11.3914C10.4772 11.3971 10.4398 11.3914 10.4542 11.4112C10.4757 11.421 10.4998 11.424 10.5232 11.4197C10.5462 11.4197 10.5663 11.3999 10.5807 11.3801C10.595 11.3659 10.6209 11.3744 10.6439 11.3744C10.664 11.3744 10.687 11.3886 10.71 11.3772C10.7158 11.3631 10.7445 11.3347 10.7532 11.3631C10.7532 11.3886 10.7733 11.3999 10.7963 11.3971C10.8222 11.3971 10.8107 11.4141 10.8107 11.4311C10.8107 11.4566 10.8308 11.4707 10.8538 11.4821H10.8768C10.8969 11.4736 10.9199 11.4651 10.9285 11.4424C10.9372 11.4226 10.9372 11.3999 10.9429 11.3801C10.9487 11.3489 10.9544 11.3149 10.9544 11.2837C10.963 11.2554 10.9602 11.2242 10.9659 11.1931L10.9745 11.1279C10.9745 11.1137 10.9688 11.1137 10.9602 11.1166ZM10.7675 11.2327C10.7704 11.2327 10.7733 11.2384 10.7733 11.2469C10.7733 11.2582 10.779 11.2667 10.7877 11.2696V11.2781L10.7647 11.2837C10.7503 11.2837 10.7388 11.2781 10.7302 11.2696L10.7244 11.2639L10.733 11.2582L10.7474 11.2441C10.756 11.2356 10.7618 11.2327 10.7675 11.2327ZM12.665 11.0089C12.6485 11.0101 12.6321 11.0129 12.6162 11.0174C12.5874 11.0174 12.573 11.0457 12.6018 11.0627C12.619 11.1052 12.6449 11.0514 12.6737 11.0571C12.7139 11.0627 12.7168 11.1081 12.7254 11.1421C12.7254 11.1732 12.7369 11.2044 12.7455 11.2356C12.7743 11.2667 12.7254 11.2866 12.7053 11.2639C12.688 11.2441 12.6478 11.2214 12.6277 11.2469C12.6018 11.2582 12.5989 11.2922 12.5788 11.3036C12.5443 11.3121 12.5414 11.2696 12.5213 11.2526C12.504 11.2271 12.4724 11.2242 12.4465 11.2186C12.435 11.1931 12.4408 11.1506 12.4178 11.1336C12.3948 11.1421 12.3545 11.1817 12.389 11.2016C12.4178 11.2299 12.3747 11.2412 12.3603 11.2582C12.3373 11.2837 12.3315 11.3149 12.3315 11.3432C12.2942 11.3631 12.2884 11.3206 12.2827 11.2951C12.2827 11.2639 12.2539 11.2724 12.2338 11.2837C12.205 11.2951 12.1935 11.3206 12.1763 11.3404V11.3971C12.182 11.4226 12.2108 11.4112 12.228 11.4084C12.2568 11.3971 12.2683 11.4282 12.2453 11.4452C12.228 11.4622 12.182 11.4537 12.1878 11.4849H12.2338C12.2625 11.4764 12.297 11.4537 12.2999 11.4197C12.3057 11.3914 12.3488 11.3942 12.3718 11.3886C12.4005 11.3801 12.4379 11.3772 12.4465 11.4169C12.4667 11.4367 12.5098 11.4594 12.5328 11.4311C12.5437 11.4242 12.5525 11.4145 12.5581 11.403C12.5637 11.3914 12.5659 11.3786 12.5644 11.3659C12.5615 11.3432 12.6018 11.3432 12.6133 11.3574C12.6277 11.3801 12.6737 11.3744 12.6967 11.3574C12.7197 11.3432 12.7254 11.3121 12.7599 11.3121L12.9152 11.2696C12.9554 11.2611 12.9094 11.2356 12.8979 11.2186C12.8692 11.2044 12.8404 11.2667 12.8059 11.2356C12.7772 11.2157 12.78 11.1789 12.7714 11.1477C12.7628 11.1081 12.7657 11.0627 12.7369 11.0344C12.7197 11.0146 12.6909 11.0089 12.665 11.0089ZM12.4695 11.2781C12.4724 11.2781 12.4782 11.2781 12.4839 11.2837C12.4954 11.2894 12.504 11.3007 12.504 11.3121C12.504 11.3177 12.504 11.3177 12.4954 11.3206L12.481 11.3262C12.4753 11.3262 12.4609 11.3177 12.4609 11.3121V11.3007C12.4552 11.2894 12.4552 11.2894 12.4609 11.2837L12.4695 11.2781ZM12.6564 11.2894C12.6679 11.2894 12.6737 11.2894 12.6794 11.2979C12.6823 11.3092 12.6794 11.3149 12.6679 11.3206L12.6535 11.3262L12.642 11.3177C12.6363 11.3149 12.6334 11.3121 12.6334 11.3064C12.6334 11.2979 12.6449 11.2894 12.6564 11.2866V11.2894ZM12.3977 11.2894C12.4034 11.2894 12.4063 11.2894 12.4092 11.2951C12.4149 11.3007 12.4178 11.3036 12.4178 11.3121V11.3291C12.4178 11.3376 12.4178 11.3347 12.4005 11.3347C12.3833 11.3347 12.3804 11.3347 12.3804 11.3177C12.3804 11.3064 12.3804 11.3036 12.389 11.2979C12.3919 11.2922 12.3977 11.2922 12.4005 11.2922L12.3977 11.2894ZM12.2424 11.3319C12.2451 11.3327 12.2476 11.3342 12.2496 11.3361C12.2516 11.3381 12.2531 11.3406 12.2539 11.3432C12.2539 11.3517 12.2539 11.3574 12.2482 11.3602C12.2395 11.3631 12.2252 11.3659 12.2194 11.3602C12.2194 11.3593 12.2194 11.3583 12.2194 11.3574C12.2137 11.3546 12.2137 11.3517 12.2194 11.3489V11.3461L12.2252 11.3376C12.2269 11.3348 12.2296 11.3327 12.2328 11.3317C12.2359 11.3307 12.2393 11.3307 12.2424 11.3319ZM12.5069 11.3659L12.5213 11.3687V11.3857H12.4868L12.4839 11.3801C12.4839 11.3744 12.4839 11.3716 12.4897 11.3687L12.5069 11.3659ZM12.0153 11.5019C12.0124 11.5019 12.0067 11.4991 12.0124 11.4962C12.0153 11.4877 12.0268 11.4849 12.0354 11.4792C12.0511 11.4733 12.0649 11.4636 12.0757 11.4509C12.0757 11.4396 12.0872 11.4339 12.0872 11.4226L12.0843 11.3829C12.0804 11.371 12.0722 11.3609 12.0613 11.3546C12.0527 11.3517 12.0412 11.3489 12.0383 11.3376C12.0383 11.3291 12.0469 11.3206 12.0498 11.3121L12.067 11.2781C12.0757 11.2696 12.0872 11.2781 12.09 11.2837L12.1044 11.3121C12.113 11.3206 12.1188 11.3291 12.1217 11.3404C12.1274 11.3517 12.1332 11.3602 12.1332 11.3687L12.1389 11.4056C12.1389 11.4197 12.1389 11.4367 12.1332 11.4509L12.1159 11.4736C12.1073 11.4821 12.0987 11.4906 12.0872 11.4934C12.0785 11.4962 12.0728 11.5047 12.0613 11.5047H12.0182L12.0153 11.5019ZM11.8169 11.5132C11.8112 11.5076 11.8083 11.5047 11.8083 11.4962C11.8083 11.4877 11.8083 11.4877 11.8169 11.4792C11.8284 11.4679 11.8342 11.4679 11.8572 11.4792C11.8773 11.4906 11.8859 11.4906 11.8859 11.4821C11.8888 11.4764 11.9003 11.4679 11.9147 11.4679C11.92 11.4681 11.925 11.4701 11.929 11.4736C11.9348 11.4792 11.9377 11.4821 11.9377 11.4934C11.9377 11.5076 11.9377 11.5076 11.929 11.5161C11.9204 11.5217 11.9204 11.5217 11.9089 11.5217C11.9038 11.5215 11.8989 11.5197 11.8948 11.5167C11.8907 11.5136 11.8876 11.5095 11.8859 11.5047C11.8859 11.4991 11.8859 11.4962 11.8802 11.5019L11.8744 11.5047C11.8687 11.5047 11.8572 11.5132 11.8514 11.5189L11.837 11.5217C11.8255 11.5217 11.8255 11.5217 11.8169 11.5132ZM11.2477 11.2611C11.2275 11.2611 11.2074 11.2781 11.2045 11.2979C11.2103 11.3177 11.2275 11.3404 11.216 11.3602C11.2247 11.3886 11.193 11.3999 11.1729 11.3857C11.1614 11.3574 11.1557 11.3291 11.1355 11.3007C11.1125 11.2951 11.1039 11.3319 11.0867 11.3461C11.0953 11.3659 11.1183 11.3857 11.1212 11.4112C11.1269 11.4396 11.1097 11.4679 11.0895 11.4792C11.0694 11.4991 11.0407 11.4934 11.0177 11.4962C10.9889 11.5132 11.0378 11.5189 11.0522 11.5189C11.0809 11.5217 11.1125 11.5189 11.1384 11.4962C11.1585 11.4877 11.1557 11.4481 11.1815 11.4452L11.3195 11.4537C11.3425 11.4594 11.3799 11.4509 11.3972 11.4679C11.3972 11.4962 11.4259 11.5189 11.4518 11.5302C11.4662 11.5359 11.4805 11.5161 11.4949 11.5132C11.5237 11.5047 11.515 11.4707 11.5323 11.4566H11.676C11.6818 11.4566 11.6847 11.4424 11.6933 11.4367L11.6875 11.3829C11.6789 11.3602 11.6875 11.3319 11.6732 11.3121C11.6473 11.3064 11.6272 11.3262 11.6042 11.3291C11.5754 11.3404 11.5553 11.3659 11.5524 11.3942C11.538 11.4197 11.5122 11.3886 11.5237 11.3659L11.5208 11.3376C11.5064 11.3234 11.4805 11.3291 11.4604 11.3262L11.3742 11.3206C11.3454 11.3206 11.3195 11.3234 11.2965 11.3177C11.2678 11.3177 11.2678 11.2894 11.2678 11.2667C11.262 11.2624 11.2548 11.2604 11.2477 11.2611ZM11.3052 11.3659L11.3339 11.3687H11.3713C11.4 11.3744 11.4288 11.3744 11.4575 11.3744C11.4633 11.3744 11.469 11.3801 11.4748 11.3857V11.4424C11.4748 11.4509 11.4748 11.4622 11.469 11.4651C11.4675 11.4673 11.4656 11.4692 11.4633 11.4707C11.4591 11.47 11.4551 11.4683 11.4516 11.4659C11.4481 11.4634 11.4452 11.4603 11.4432 11.4566V11.4169C11.4375 11.4121 11.4304 11.4092 11.423 11.4084L11.3483 11.4056L11.2908 11.4027C11.2822 11.3999 11.2707 11.4027 11.2649 11.3914C11.2592 11.3857 11.2678 11.3744 11.2764 11.3716C11.2854 11.3676 11.2953 11.3656 11.3052 11.3659ZM11.63 11.3744C11.6329 11.3744 11.6358 11.3744 11.6358 11.3829L11.6415 11.3971C11.6415 11.3999 11.6415 11.4027 11.6358 11.4027C11.6214 11.4084 11.607 11.4084 11.6013 11.4027C11.6013 11.3999 11.6013 11.3886 11.607 11.3857L11.63 11.3744Z" fill="#C09300"/>
</g>
</g>
<path id="Vector_20" d="M11.4993 9.77094C12.4365 9.0626 12.356 8.01994 12.356 8.01994L12.2841 8.0256C12.0858 8.0256 11.6171 7.91227 11.5079 7.77344C11.3929 7.90094 10.9099 8.02844 10.7144 8.02844L10.6425 8.01994C10.6425 8.01994 10.5591 9.05977 11.4993 9.77094Z" fill="white" stroke="#C09300" strokeWidth="0.11"/>
<path id="Vector_21" d="M12.2828 8.09297H12.2598C12.0815 8.09297 11.6675 8.00514 11.5065 7.86914C11.3398 7.99381 10.9171 8.09581 10.7418 8.09581C10.734 8.09551 10.7263 8.09457 10.7188 8.09297C10.7203 8.27203 10.7454 8.45013 10.7935 8.62281C10.9088 9.03885 11.1568 9.40736 11.5008 9.67397C11.845 9.40635 12.0929 9.03688 12.208 8.61997C12.2558 8.44821 12.281 8.27108 12.2828 8.09297Z" fill="white" stroke="#C09300" strokeWidth="0.09"/>
<path id="Vector_22" d="M11.196 8.00869C11.0416 8.05825 10.881 8.08685 10.7188 8.09369L10.7216 8.20986C10.7314 8.34884 10.7555 8.48649 10.7935 8.62069C10.8708 8.89935 11.0081 9.15833 11.196 9.38003V8.00869ZM11.7883 8.00869V9.40269C11.9852 9.1759 12.1286 8.90879 12.208 8.62069C12.2459 8.48648 12.27 8.34884 12.2799 8.20986L12.2828 8.09653H12.2598C12.1505 8.09653 11.9608 8.06253 11.7883 8.00586V8.00869Z" fill="#C09300"/>
<g id="Group_4">
<path id="Vector_23" d="M11.8535 7.6683C11.8736 7.67114 11.8276 7.56914 11.8276 7.56914C11.8794 7.62014 12.0691 7.6343 12.0691 7.6343C11.9541 7.5833 11.8391 7.20647 11.8535 6.9033C11.865 6.60297 11.8104 6.48397 11.7672 6.43864C11.7097 6.38197 11.5229 6.33097 11.4021 6.3253C11.3302 6.32247 11.3446 6.3763 11.3446 6.3763C11.2152 6.34514 11.0859 6.33097 11.0284 6.37064C10.9766 6.40464 10.9651 6.58314 11.0054 6.55197C11.1002 6.47547 11.1836 6.5463 11.2411 6.62847C11.2929 6.6993 11.29 6.9033 11.2152 7.14414C11.149 7.3262 11.0518 7.4958 10.9277 7.64564C11.0427 7.64564 11.2037 7.54647 11.2037 7.54647L11.1664 7.7023C11.2871 7.64564 11.382 7.5578 11.382 7.5578L11.497 7.6768C11.5344 7.6258 11.612 7.5578 11.612 7.5578C11.612 7.5578 11.7069 7.65697 11.8535 7.67114V7.6683Z" fill="white" stroke="#C09300" strokeWidth="0.12"/>
<path id="Vector_24" d="M11.3871 6.94874C11.3871 6.94874 11.3239 7.4134 11.2031 7.54374M11.4906 6.93457C11.4906 6.93457 11.4619 7.40774 11.3814 7.5579M11.5797 6.9544C11.5797 6.9544 11.5797 7.47007 11.6085 7.5579M11.6947 6.9799C11.6947 6.9799 11.7177 7.4134 11.827 7.56924" stroke="#C09300" strokeWidth="0.13"/>
<path id="Vector_25" d="M11.2704 6.72233C11.2678 6.68947 11.258 6.65756 11.2416 6.62883C11.1841 6.54383 11.1007 6.47583 11.0059 6.55233C11.0059 6.55233 11.0375 6.45316 11.1094 6.45033C11.1611 6.44749 11.2847 6.48999 11.394 6.67133C11.394 6.67133 11.3135 6.65433 11.2934 6.67133C11.2589 6.69966 11.2732 6.72233 11.2732 6.72233H11.2704Z" fill="#C09300" stroke="#C09300" strokeWidth="0.03"/>
<path id="Vector_26" d="M10.9941 6.43014C11.0028 6.4018 11.0143 6.37914 11.0315 6.37064C11.089 6.33097 11.2155 6.3423 11.3449 6.3763C11.3449 6.3763 11.3334 6.32247 11.4024 6.3253C11.5231 6.33097 11.7071 6.38197 11.7646 6.43864C11.7831 6.45856 11.7977 6.4816 11.8078 6.50664C11.779 6.46697 11.6985 6.4698 11.6784 6.47264C11.6496 6.47547 11.6295 6.47264 11.5893 6.48397C11.5691 6.48964 11.5404 6.4953 11.5231 6.50664C11.5116 6.51797 11.5001 6.55197 11.4829 6.55197C11.4541 6.55197 11.4541 6.5463 11.4455 6.5378C11.4369 6.52364 11.4311 6.50664 11.4196 6.50947C11.3909 6.5123 11.3391 6.48964 11.2759 6.43864C11.2098 6.38764 11.1839 6.3763 11.1034 6.38197C11.0171 6.38764 10.9941 6.4358 10.9941 6.4358V6.43014Z" fill="#C09300" stroke="#C09300" strokeWidth="0.03"/>
<path id="Vector_27" d="M11.4661 6.50355C11.4852 6.50355 11.5006 6.48832 11.5006 6.46955C11.5006 6.45077 11.4852 6.43555 11.4661 6.43555C11.4471 6.43555 11.4316 6.45077 11.4316 6.46955C11.4316 6.48832 11.4471 6.50355 11.4661 6.50355Z" fill="white"/>
</g>
</g>
</g>
<defs>
<clipPath id="clip0_650_3391">
<rect width="23" height="17" fill="white" transform="translate(0 0.5)"/>
</clipPath>
</defs>
</svg>
