<svg width="42" height="42" viewBox="0 0 42 42" fill="none" xmlns="http://www.w3.org/2000/svg">
<rect width="42" height="42" rx="21" fill="black" fill-opacity="0.6"/>
<path fillRule="evenodd" clipRule="evenodd" d="M15.2326 12.198C15.7149 11.3214 16.2396 10.7354 17.0183 10.4255C18.4451 9.85815 23.5551 9.85815 24.9808 10.4256C25.759 10.7353 26.2839 11.3213 26.7667 12.1977L27.3093 13.2383C27.3217 13.2589 27.3331 13.277 27.3434 13.2926L27.3895 13.3556C27.6367 13.6251 28.0505 13.7878 28.3236 13.7878C30.906 13.7878 33 15.8813 33 18.463V25.417C33 28.7101 30.3291 31.381 27.036 31.381H14.964C11.6701 31.381 9 28.7104 9 25.417V18.463C9 15.8813 11.094 13.7878 13.6764 13.7878C13.9485 13.7878 14.3629 13.6248 14.6105 13.3556C14.6155 13.3503 14.6219 13.3422 14.6297 13.3316L14.6914 13.2369L15.2326 12.198ZM25.19 13.0661C24.89 12.5215 24.619 12.2189 24.3152 12.098L24.172 12.0504C22.937 11.7013 18.6413 11.7172 17.6836 12.098C17.38 12.2188 17.1092 12.5213 16.8096 13.0658L16.3478 13.9587L16.2341 14.1644C16.1392 14.3222 16.0443 14.4555 15.9359 14.5736C15.3282 15.2342 14.4291 15.5878 13.6764 15.5878L13.4795 15.5944C11.9829 15.6956 10.8 16.9417 10.8 18.463V25.417C10.8 27.7164 12.6643 29.581 14.964 29.581H27.036C29.3349 29.581 31.2 27.7159 31.2 25.417V18.463C31.2 16.8755 29.912 15.5878 28.3236 15.5878L28.1147 15.5791C27.4084 15.521 26.6151 15.174 26.0633 14.5728C25.9564 14.4562 25.862 14.3239 25.7677 14.1674C25.7541 14.145 25.7373 14.1154 25.718 14.0805L25.5787 13.8192L25.19 13.0661Z" fill="white"/>
<path d="M27.6052 16.6002C28.2679 16.6002 28.8052 17.1375 28.8052 17.8002C28.8052 18.4156 28.3419 18.9228 27.7451 18.9922L27.6052 19.0002C26.9316 19.0002 26.3944 18.463 26.3944 17.8002C26.3944 17.1848 26.8576 16.6776 27.4544 16.6083L27.6052 16.6002Z" fill="white"/>
<path fillRule="evenodd" clipRule="evenodd" d="M16.2848 22.1538C16.2848 19.5496 18.3954 17.439 20.9996 17.439C23.6039 17.439 25.7144 19.5496 25.7144 22.1538C25.7144 24.7581 23.6039 26.8686 20.9996 26.8686C18.3954 26.8686 16.2848 24.7581 16.2848 22.1538ZM23.9144 22.1538C23.9144 20.5437 22.6098 19.239 20.9996 19.239C19.3895 19.239 18.0848 20.5437 18.0848 22.1538C18.0848 23.764 19.3895 25.0686 20.9996 25.0686C22.6098 25.0686 23.9144 23.764 23.9144 22.1538Z" fill="white"/>
</svg>
