<svg width="138" height="125" viewBox="0 0 138 125" fill="none" xmlns="http://www.w3.org/2000/svg">
<g id="Frame 17">
<path id="Vector" d="M27.2083 80.9304C28.7655 80.861 35.6658 78.6225 37.0168 77.7158C38.8284 76.5833 38.6958 74.7306 36.677 73.1085C35.863 72.4465 35.2787 71.7535 35.3794 71.4594C35.4633 71.2143 37.5381 69.9528 39.9574 68.645C42.3935 67.2882 48.2581 63.4355 52.9717 60.0651C57.6853 56.6947 62.6118 53.3424 63.8634 52.5659L66.1847 51.2245L70.3033 56.6324C77.7304 66.2946 79.7519 67.589 83.8653 65.4919C85.9221 64.4433 99.1681 51.5065 99.6547 50.0848C100.024 49.0063 99.357 48.3946 98.517 48.9286C98.1712 49.1388 94.8858 52.1766 91.2366 55.6375C84.0039 62.5271 81.9936 63.9201 80.1307 63.2824C79.3953 63.0307 76.8464 60.077 73.6359 55.8563C70.7337 52.0149 67.9256 48.6987 67.3373 48.4973C66.798 48.3127 65.7659 48.288 65.1092 48.4466C64.4202 48.5393 57.1234 53.2162 48.9182 58.7871C40.7129 64.3579 33.6794 68.9058 33.2858 68.9354C32.8923 68.965 31.5881 68.1352 30.4 67.1261C29.212 66.117 27.8587 65.2704 27.3672 65.2664C26.1376 65.3384 23.0868 69.7709 21.8786 73.3007C20.5361 77.2226 21.306 79.2934 24.3622 80.2848C25.4898 80.6708 26.7657 80.9433 27.2083 80.9304Z" fill="#ED5B28"/>
</g>
</svg>
