<svg width="151" height="46" viewBox="0 0 151 46" fill="none" xmlns="http://www.w3.org/2000/svg">
<g id="Frame 16">
<g id="Group 1">
<g id="Group">
<path id="Vector" d="M99.5619 1.4484C99.405 1.86681 99.065 2.88668 98.8035 3.74964C98.5159 4.61261 97.4175 8.09062 96.3454 11.464C95.2732 14.8374 93.155 21.5581 91.6383 26.3698C90.1216 31.1815 88.5787 35.9932 88.2126 37.0653C87.8465 38.1375 87.585 39.0266 87.6112 39.0266C87.6635 39.0528 100.765 39.0266 116.769 38.9743L145.848 38.8959L146.24 37.6668C146.449 36.9869 147.208 34.5026 147.966 32.1229C148.698 29.7432 149.666 26.6051 150.137 25.1146L151 22.4472H137.611H124.248L123.829 23.5455C123.62 24.1731 122.888 26.4221 122.208 28.5926C121.554 30.7369 120.848 32.9336 120.665 33.4304L120.351 34.3457L118.207 34.4241C116.455 34.4764 116.063 34.4241 116.063 34.1103C116.063 33.6919 116.926 30.8415 118.181 27.102C118.599 25.8729 118.939 24.7746 118.939 24.6962C118.939 24.6177 117.606 24.5393 115.984 24.5393H113.029L111.774 28.6449C111.068 30.92 110.336 33.1689 110.153 33.6135L109.813 34.4764H107.852C106.779 34.4764 105.812 34.3718 105.733 34.2149C105.576 33.9796 108.27 25.01 109.133 22.8918C109.316 22.4734 109.081 22.4472 106.309 22.4472H103.301L102.648 24.4608C102.282 25.5853 101.497 28.148 100.896 30.1616C100.294 32.1752 99.7711 33.9796 99.6926 34.1365C99.588 34.5287 95.5347 34.6072 95.2732 34.2411C95.1948 34.1103 95.2471 33.7181 95.3778 33.3781C95.5086 33.0382 96.7115 29.2986 98.019 25.0623C99.3527 20.8259 101.602 13.6607 103.014 9.16279C104.426 4.66491 105.603 0.925396 105.603 0.846943C105.603 0.794643 104.295 0.74234 102.726 0.74234H99.8495L99.5619 1.4484ZM143.521 26.7359C143.521 26.7882 143.05 28.3572 142.475 30.1878C141.899 32.0444 141.429 33.6919 141.429 33.8488C141.429 34.0319 141.246 34.2411 141.01 34.3195C140.775 34.398 137.428 34.4764 133.557 34.4764H126.523V33.875C126.523 33.5612 126.915 32.1229 127.412 30.6846C127.909 29.2463 128.38 27.7558 128.484 27.3374L128.615 26.6313H136.068C140.173 26.6313 143.521 26.6836 143.521 26.7359Z" fill="#ED5B28"/>
<path id="Vector_2" d="M105.734 15.3079C105.63 15.5694 105.264 16.5631 104.95 17.5307L104.322 19.3089L106.807 19.3612C108.166 19.3874 109.474 19.4135 109.709 19.4135C110.154 19.4397 110.938 17.6876 111.461 15.5694L111.618 14.8634H108.768C106.31 14.8634 105.891 14.9157 105.734 15.3079Z" fill="#ED5B28"/>
<path id="Vector_3" d="M42.1892 17.7923C42.1369 17.9754 41.8493 18.9429 41.5616 19.9628C41.274 20.9565 40.3064 24.1469 39.4173 27.0234C38.5282 29.9 37.6652 32.7242 37.5083 33.2995L37.1945 34.3456L35.2855 34.424C34.2134 34.4763 33.1935 34.4502 33.0366 34.3717C32.8013 34.2933 33.0366 33.2211 33.8734 30.5014C34.5272 28.4356 35.3901 25.5852 35.8085 24.173C36.2531 22.7348 36.6454 21.4795 36.7238 21.3488C36.8023 21.2442 37.0638 20.3812 37.3253 19.4398L37.796 17.74H34.8671H31.9644L29.6632 24.9837C28.408 28.9847 27.1528 32.9073 26.8913 33.6918C26.2375 35.6531 25.3223 38.6081 25.3223 38.7911C25.3223 38.8696 28.9833 38.8957 33.455 38.8696L41.6139 38.7911L42.6076 35.6531C43.1306 33.9272 44.3336 30.1876 45.2227 27.3372L46.8701 22.1856H49.0406C50.2435 22.1856 51.2111 22.2379 51.2111 22.3163C51.2111 22.3948 50.7404 23.9638 50.1651 25.7944C49.5636 27.6249 48.6745 30.4753 48.1515 32.1228C47.6546 33.7702 46.9486 35.9407 46.6348 36.9606L46.0595 38.7911L64.4955 38.8696C74.6418 38.8957 83.036 38.8434 83.1406 38.7388C83.2191 38.6081 83.6637 37.4052 84.1082 36.0453C87.1155 26.6835 88.3446 22.7871 88.3446 22.6302C88.3446 22.5256 87.0109 22.4471 85.3634 22.4471H82.4084L81.8331 24.4607C81.4932 25.5852 80.8133 27.7818 80.3164 29.377C79.8196 30.946 79.2704 32.7242 79.0873 33.2995L78.7474 34.3456L71.3991 34.424C62.9787 34.5025 63.5802 34.6855 64.5216 32.0705C64.8093 31.3121 65.6461 28.7755 66.3783 26.422L67.712 22.1856H69.9086C71.1376 22.1856 72.1314 22.2902 72.1314 22.3948C72.1314 22.5256 71.8437 23.4931 71.4776 24.5391C71.1115 25.5852 70.8238 26.5789 70.8238 26.7358C70.8238 26.9188 71.8699 27.0496 73.7004 27.0757L76.5508 27.128L77.6491 23.6762C78.2505 21.7672 78.8781 19.6752 79.0612 18.9691L79.4011 17.74H71.2684H63.1095L61.1744 23.9638C60.1022 27.3634 58.9777 30.9722 58.6901 31.992C58.3763 32.9857 58.0363 33.9795 57.9317 34.1364C57.6964 34.5286 53.9307 34.6071 53.7215 34.241C53.6431 34.1102 53.7477 33.5087 53.9307 32.8811C54.1399 32.2535 54.7414 30.3184 55.2644 28.5925C55.7874 26.8665 56.6504 24.1469 57.1472 22.5779C57.6441 20.9827 58.2194 19.2044 58.4024 18.5768L58.7424 17.4785H50.5312C44.1767 17.4785 42.2677 17.557 42.1892 17.7923Z" fill="#ED5B28"/>
<path id="Vector_4" d="M29.8999 43.4721C29.5337 44.6227 29.2461 45.6426 29.2461 45.7733C29.2461 45.9041 31.495 45.9564 34.2408 45.9302L39.2355 45.8518L39.9677 43.6813C40.3861 42.5045 40.6999 41.537 40.6738 41.537C40.6476 41.537 38.3464 41.5108 35.5745 41.4585L30.5536 41.4062L29.8999 43.4721Z" fill="#ED5B28"/>
<path id="Vector_5" d="M72.2375 41.6676C72.1852 41.7983 71.9499 42.5044 71.7145 43.2366C71.5053 43.9427 71.2177 44.858 71.0869 45.2502L70.8516 45.9824H75.8986H80.9456L81.6516 43.8904C82.0178 42.7659 82.3316 41.7199 82.3316 41.6153C82.3316 41.3015 72.3421 41.3538 72.2375 41.6676Z" fill="#ED5B28"/>
</g>
<path id="Vector 3" d="M13.3207 17.2168H19.1064L12.7323 38.3006L6.65234 38.2025L13.3207 17.2168Z" fill="#ED5B28" stroke="#ED5B28" strokeWidth="0.207754"/>
<path id="Vector 4" d="M23.1126 24.6934L24.8693 30.206L2.84563 30.5345L1.093 24.7118L23.1126 24.6934Z" fill="#ED5B28" stroke="#ED5B28" strokeWidth="0.207754"/>
<path id="Union" d="M46.6584 2.91951L38.3628 0.372946C36.1541 -0.294488 33.7665 -0.0596687 31.7241 1.02587C29.6817 2.11142 29.6087 2.70331 28.3955 4.05153L29.1471 4.38666L30.4219 4.27234L28.3588 4.07621C28.3094 4.25945 35.3732 6.13349 35.4664 6.29832C35.5596 6.46315 28.1763 4.02402 28.3588 4.07621C28.5413 4.1284 39.4438 3.49295 37.2864 1.76086C35.129 0.0287655 28.7548 3.88008 28.3588 4.07621L35.4767 6.40476C35.6856 5.72817 29.9316 3.78202 28.3588 4.07621L35.4767 6.40476L31.8482 18.1647C31.792 18.3467 31.7723 18.5378 31.7901 18.7272C31.808 18.9165 31.8631 19.1003 31.9523 19.2681C32.0415 19.4359 32.163 19.5844 32.3099 19.7052C32.4569 19.8259 32.6263 19.9165 32.8086 19.9717L35.3469 20.7415C35.5292 20.7968 35.7207 20.8157 35.9106 20.7971C36.1006 20.7786 36.2851 20.7229 36.4537 20.6333C36.6223 20.5436 36.7717 20.4218 36.8934 20.2748C37.015 20.1278 37.1065 19.9584 37.1627 19.7764L40.7912 8.01647L44.717 9.20702C44.8993 9.26233 45.0909 9.28124 45.2808 9.26266C45.4707 9.24409 45.6552 9.18841 45.8238 9.09878C45.9925 9.00916 46.1419 8.88736 46.2635 8.74034C46.3851 8.59332 46.4766 8.42395 46.5328 8.24192L47.6172 4.72741C47.6735 4.54543 47.6934 4.35432 47.6758 4.16497C47.6581 3.97563 47.6031 3.79176 47.5141 3.62388C47.425 3.45599 47.3036 3.30738 47.1568 3.18652C47.01 3.06566 46.8406 2.97493 46.6584 2.91951ZM39.616 6.90116L38.7716 9.63779L36.2342 8.86963L37.079 6.13177C37.1071 6.04072 37.117 5.9451 37.1081 5.85038C37.0992 5.75566 37.0716 5.6637 37.027 5.57974C36.9824 5.49579 36.9216 5.42151 36.8481 5.36112C36.7746 5.30074 36.6898 5.25545 36.5985 5.22785L30.7913 3.46737C31.7253 2.57648 32.8793 1.9488 34.1348 1.64888C35.3902 1.34895 36.7018 1.3876 37.9346 1.76086L43.3718 3.42921L42.2831 6.95112L40.5239 6.4176C40.4327 6.38989 40.3369 6.3804 40.2418 6.38967C40.1468 6.39894 40.0545 6.42679 39.9701 6.47163C39.8858 6.51646 39.8111 6.57741 39.7502 6.65097C39.6894 6.72454 39.6436 6.80928 39.6156 6.90037L39.616 6.90116ZM45.146 7.81867L43.6739 7.37222L44.7538 3.855L46.2259 4.30146L45.146 7.81867Z" fill="#ED5B28"/>
<path id="Vector 5" d="M41.4615 4.26878C41.1274 4.53394 40.7742 4.69296 40.3874 4.86486C40.1695 4.96169 39.9081 5.06029 39.6688 5.08423C39.615 5.08961 39.5876 5.09226 39.584 5.02976C39.5642 4.68245 39.7841 4.3557 40.0273 4.12657C40.2856 3.88333 40.8195 3.59626 41.0924 3.95713C41.5564 4.57078 40.3616 4.96011 39.9411 4.96925C39.6454 4.97568 39.3161 4.87085 39.1604 4.60162C38.9221 4.18947 39.3062 3.84934 39.64 3.66665C40.2356 3.34073 40.9879 3.12695 41.6703 3.23396C42.0421 3.29227 42.4062 3.64795 42.0833 3.99646C41.8245 4.27581 41.3914 4.36009 41.0334 4.42763C40.9918 4.43548 40.5072 4.53381 40.4872 4.48059C40.4092 4.2724 40.8423 4.01473 40.9532 3.95259C41.2664 3.77708 41.8426 3.47193 42.2089 3.68178C42.7231 3.97636 42.13 4.81811 41.8761 5.09482C41.8491 5.12415 41.5095 5.38465 41.5251 5.32024C41.6583 4.77064 42.1435 4.37147 42.5357 4.00251C42.579 3.96174 43.7277 2.82351 43.8262 3.00401C43.9194 3.17489 43.7596 3.55276 43.7354 3.7196C43.7231 3.80427 43.4951 4.45482 43.4222 4.18406C43.3839 4.04164 43.3011 3.87605 43.3315 3.72717C43.3597 3.58848 43.4222 3.45795 43.4222 3.31415C43.4222 3.12698 43.4532 3.19321 43.4434 3.36407C43.4293 3.60973 43.4326 3.85922 43.3829 4.10085C43.3774 4.12777 43.3647 4.27873 43.3557 4.2597C43.2634 4.06488 43.2613 3.83487 43.2588 3.62429C43.2588 3.62071 43.2585 3.28997 43.2755 3.29751C43.3673 3.33831 43.3423 3.58528 43.3345 3.65606C43.2906 4.05134 43.129 4.43029 42.9805 4.79527C42.8456 5.12665 42.7229 5.46965 42.5236 5.76957C42.3612 6.01388 42.1388 6.23393 41.9441 6.45339C41.8163 6.59756 41.7813 6.61237 41.8398 6.39893C41.995 5.8323 42.3788 5.35354 42.7142 4.88453C42.9366 4.57354 43.1753 4.27195 43.3935 3.95864C43.4185 3.92276 43.4921 3.7695 43.5523 3.76348C43.5664 3.76207 43.5574 3.79183 43.5554 3.80584C43.539 3.91609 43.5093 4.02552 43.4797 4.13262C43.3182 4.71706 43.0867 5.26592 42.8564 5.82554C42.6982 6.21014 42.5642 6.60306 42.4177 6.99198C42.4171 6.99339 42.2842 7.30659 42.2361 7.19168C42.1983 7.10142 42.2144 6.92523 42.215 6.84069C42.2173 6.50029 42.248 6.1584 42.336 5.82857C42.3788 5.66788 42.4435 5.43281 42.572 5.30965C42.6349 5.24934 42.5915 5.56327 42.5871 5.58499C42.4944 6.04559 42.1789 6.49156 41.8942 6.85128C41.885 6.86298 41.6425 7.22015 41.5826 7.17655C41.4643 7.09051 41.5431 6.74583 41.5674 6.63494C41.6082 6.44929 41.6908 6.27395 41.7883 6.11148C41.8848 5.95073 41.9266 6.17164 41.9305 6.26126C41.9441 6.56855 41.6603 6.8241 41.4585 7.02224C41.3133 7.16486 41.1155 7.30161 40.9018 7.28548C40.2995 7.24003 41.0755 6.07212 41.3405 5.92691C41.4243 5.88099 41.5205 5.89714 41.5311 6.00558C41.5466 6.16267 41.488 6.32449 41.4283 6.4655C41.2439 6.90065 40.9599 7.30078 40.6612 7.66371C40.1086 8.33514 39.401 8.77234 38.6173 9.13121C38.575 9.1506 38.011 9.48587 38.1029 9.2129C38.2298 8.83647 38.5732 8.45598 38.8367 8.17052C38.874 8.13011 39.0604 7.90827 39.1468 7.91787C39.4137 7.94752 38.875 9.17498 38.8095 9.29157C38.7733 9.35586 38.6772 9.55782 38.5886 9.57751C38.4782 9.60204 38.4007 9.46037 38.3904 9.37327C38.3768 9.25878 38.5902 8.39287 38.752 8.52908C38.9414 8.6886 38.7514 9.22394 38.699 9.39445C38.6212 9.6476 38.4597 10.2094 38.165 10.3158C37.9246 10.4026 37.7133 9.92237 37.6612 9.77116C37.5429 9.42807 37.5613 9.02561 37.7308 8.70155C37.7815 8.60463 37.8506 8.44825 37.9214 8.36569C37.9592 8.32157 37.9321 8.4856 37.9108 8.53967C37.7687 8.90077 37.155 9.23348 36.7837 9.04951C36.5393 8.9284 36.4988 8.63997 36.5598 8.39594C36.6037 8.22048 36.6899 8.05815 36.7686 7.89669C36.8009 7.83047 36.8499 7.66732 36.9199 7.61832C37.006 7.55805 37.1466 7.73074 37.1801 7.78474C37.3843 8.1142 37.2824 8.61153 37.1286 8.93907C37.0796 9.04363 36.9686 9.28327 36.8185 9.27493C36.5478 9.25989 36.2766 9.10034 36.2633 8.80442C36.2412 8.31369 36.7814 7.90251 37.1196 7.6395C37.2969 7.50154 38.0334 6.92752 38.227 7.36567C38.3827 7.71814 38.0582 8.32223 37.8548 8.58959C37.6303 8.88466 37.3021 9.0064 36.938 8.96025C36.7334 8.93431 36.6426 8.75673 36.7308 8.56539C36.8749 8.25231 37.2861 7.91707 37.6128 7.81499C38.1892 7.63485 37.7588 8.47634 37.6173 8.66373C37.4639 8.8669 37.2098 9.02802 36.9516 8.92546C36.6583 8.80892 36.4744 8.49615 36.5961 8.19019C36.7254 7.8651 37.0616 7.63999 37.3904 7.5578C37.5529 7.51718 37.7366 7.55446 37.7519 7.75145C37.7867 8.19658 37.4932 8.97565 36.9274 8.73786C36.7464 8.66177 36.5895 8.49134 36.6249 8.28248C36.6803 7.95505 37.1516 7.8235 37.4221 7.74843C37.6111 7.696 37.8359 7.61111 38.0152 7.73632C38.1696 7.84415 38.0076 8.15432 37.9244 8.24919C37.6474 8.56508 37.1512 8.43528 36.8472 8.2386C36.56 8.05275 36.1554 7.70927 36.2224 7.32179C36.2599 7.10518 36.4574 6.90063 36.5916 6.7363C36.7425 6.55151 36.8922 6.56638 37.059 6.74387C37.2778 6.97659 37.2809 7.2892 37.289 7.59109C37.2901 7.63003 37.3272 8.2144 37.2194 8.2144C36.7547 8.2144 35.9709 7.01092 36.5961 6.79833C36.8507 6.71177 37.0083 7.05121 37.0424 7.24312C37.0578 7.32943 37.1263 7.85536 37.0106 7.90577C36.707 8.03812 36.3857 6.91528 36.4932 6.88457C36.6466 6.84074 36.9595 7.34579 36.8805 7.48216C36.8455 7.54262 36.7481 7.38851 36.7383 7.36718C36.6892 7.25959 36.655 7.1649 36.6733 7.04342C36.6974 6.88235 36.7885 6.75735 36.7262 6.58955C36.6674 6.43101 36.5336 6.28996 36.4388 6.15082C36.2975 5.94363 36.0316 5.84134 35.8518 5.66972C35.7314 5.5548 35.6012 5.4493 35.4735 5.34293C35.1985 5.11371 34.9284 4.81104 34.59 4.66213C34.4638 4.60659 34.3286 4.60824 34.1952 4.59254C34.1244 4.58421 34.0724 4.5411 34 4.5411" stroke="#ED5B28" strokeWidth="0.623263" strokeLinecap="round"/>
<path id="Vector 6" d="M34.0269 3.8058C33.9311 3.7638 33.8649 3.7199 33.7848 3.66359C33.6987 3.60307 33.5753 3.62159 33.4974 3.5592C33.4036 3.4842 33.2831 3.48496 33.1887 3.42456C33.1401 3.39342 33.4514 3.39732 33.5064 3.39732C33.8723 3.39732 34.239 3.4045 34.6048 3.39732C34.9887 3.3898 35.3467 3.25006 35.7183 3.18249C36.0325 3.12536 36.3116 3.08352 36.6018 2.93438C36.8304 2.81688 36.8247 2.47144 36.5473 2.47144C36.3979 2.47144 36.8387 2.53943 36.9815 2.58339C37.0305 2.59845 37.05 2.63483 37.1056 2.63483C37.1634 2.63483 37.2103 2.63174 37.2614 2.66206C37.3047 2.68771 37.3409 2.68929 37.39 2.68929C37.4393 2.68929 37.4605 2.73916 37.5126 2.74376C37.671 2.75774 37.8505 2.84264 37.9967 2.9011C38.1626 2.96748 38.3505 3.01256 38.508 3.08416C38.5606 3.10807 38.6274 3.09777 38.6835 3.09777C38.7795 3.09777 38.8244 3.17143 38.9074 3.17947C39.0948 3.19761 39.271 3.24661 39.4551 3.28537C39.5934 3.31449 39.7387 3.32539 39.8696 3.38522C39.9549 3.42421 40.034 3.44663 40.1268 3.45179C40.2598 3.45917 40.3749 3.56072 40.5111 3.56072C40.5995 3.56072 40.7365 3.59494 40.8137 3.64241C40.8889 3.68872 40.9838 3.75402 41.0663 3.78009C41.1385 3.80289 41.2803 3.85514 41.3401 3.90414C41.3819 3.9383 41.4118 3.97486 41.4355 4.02215C41.457 4.06518 41.5179 4.04928 41.5489 4.09325C41.5905 4.15221 41.6947 4.13035 41.7078 4.20218C41.7347 4.35013 41.6468 4.36763 41.5247 4.43819C41.3895 4.5163 41.2934 4.58786 41.1889 4.69236C41.1392 4.742 41.0052 4.78404 40.974 4.85424C40.9515 4.90493 40.858 5.00222 40.8076 5.03124C40.7141 5.0851 40.6226 5.15879 40.5474 5.23397C40.5038 5.27753 40.4335 5.28723 40.384 5.32475C40.3405 5.35771 40.3525 5.40168 40.3159 5.43821C40.1552 5.59892 39.9688 5.73569 39.8136 5.91477C39.7219 6.0206 39.6108 6.07619 39.5277 6.19617C39.4715 6.27738 39.3795 6.34731 39.3038 6.40949C39.2138 6.48344 39.0569 6.68527 38.9286 6.6924C38.843 6.69716 38.7557 6.6924 38.6699 6.6924C38.5746 6.6924 38.4793 6.6924 38.384 6.6924C38.228 6.6924 38.4663 6.87604 38.4868 6.91025C38.5375 6.9946 38.4929 6.7136 38.4929 6.61524C38.4929 6.47893 38.4141 6.34828 38.3416 6.23551C38.2998 6.17048 38.1677 6.02739 38.0738 6.06909C37.9913 6.10579 38.1049 6.39648 38.1101 6.44882C38.1336 6.68364 38.1387 6.89841 38.1676 7.12962C38.1852 7.27025 38.2287 7.14744 38.1782 7.04641C38.0904 6.87085 38.0197 6.59418 38.0027 6.3989C37.9948 6.30828 37.9366 6.24051 37.8998 6.15986C37.8562 6.06407 37.879 5.96085 37.853 5.86182C37.8176 5.72745 37.8403 5.65843 37.7365 5.5426C37.6727 5.47154 37.6914 5.36184 37.5927 5.31869C37.4786 5.26875 37.4492 5.20266 37.3613 5.12504C37.268 5.04277 37.1193 4.97617 37.0436 4.88298C36.9812 4.80621 36.9061 4.70446 36.8045 4.70446C36.6867 4.70446 36.5035 4.53964 36.4233 4.45937C36.3538 4.38986 36.275 4.34634 36.2054 4.28085C36.1743 4.25155 36.2485 4.26875 36.272 4.26875C36.4031 4.26875 36.5342 4.26875 36.6653 4.26875C36.9165 4.26875 37.1676 4.26875 37.4188 4.26875C37.6901 4.26875 37.9614 4.26875 38.2327 4.26875C38.27 4.26875 38.5104 4.24144 38.4914 4.30808C38.4774 4.35711 37.4696 4.29598 37.3159 4.29598C37.1565 4.29598 36.9972 4.29598 36.8378 4.29598C36.5667 4.29598 36.1831 4.36876 35.9331 4.26875" stroke="#ED5B28" strokeWidth="2.70081" strokeLinecap="round"/>
<path id="Vector 7" d="M41.4355 4.18692C41.5766 4.18692 41.7052 4.13246 41.844 4.13246C41.9251 4.13246 42.0209 4.15072 42.0891 4.10522" stroke="#ED5B28" strokeWidth="2.70081" strokeLinecap="round"/>
</g>
</g>
</svg>
