<svg width="20" height="20" viewBox="0 0 20 20" fill="none" xmlns="http://www.w3.org/2000/svg">
<path fillRule="evenodd" clipRule="evenodd" d="M16.19 3.33008C17.88 3.33008 19.24 4.70008 19.24 6.39008V9.83008C16.78 11.2701 13.53 12.1401 9.99 12.1401C6.45 12.1401 3.21 11.2701 0.75 9.83008V6.38008C0.75 4.69008 2.12 3.33008 3.81 3.33008H16.19Z" stroke="#141522" strokeWidth="1.5" strokeLinecap="round" strokeLinejoin="round"/>
<path d="M13.4961 3.32576V2.95976C13.4961 1.73976 12.5061 0.749756 11.2861 0.749756H8.70609C7.48609 0.749756 6.49609 1.73976 6.49609 2.95976V3.32576" stroke="#141522" strokeWidth="1.5" strokeLinecap="round" strokeLinejoin="round"/>
<path d="M0.775391 13.4829L0.964391 15.9919C1.09239 17.6829 2.50139 18.9899 4.19639 18.9899H15.7954C17.4904 18.9899 18.8994 17.6829 19.0274 15.9919L19.2164 13.4829" stroke="#141522" strokeWidth="1.5" strokeLinecap="round" strokeLinejoin="round"/>
</svg>
