<svg width="24" height="24" viewBox="0 0 24 24" fill="none" xmlns="http://www.w3.org/2000/svg">
<g id="Image 2">
<path id="Stroke 1" fillRule="evenodd" clipRule="evenodd" d="M17.0198 1.20801H6.92584C3.41184 1.20801 1.20801 3.69767 1.20801 7.22101V16.7247C1.20801 20.248 3.40251 22.7377 6.92584 22.7377H17.014C20.5432 22.7377 22.7365 20.248 22.7365 16.7247V7.22101C22.7412 3.69767 20.5467 1.20801 17.0198 1.20801Z" stroke="#141522" strokeWidth="1.5" strokeLinecap="round" strokeLinejoin="round"/>
<path id="Stroke 3" fillRule="evenodd" clipRule="evenodd" d="M10.487 8.24937C10.487 9.43937 9.52335 10.403 8.33335 10.403C7.14452 10.403 6.17969 9.43937 6.17969 8.24937C6.17969 7.05937 7.14452 6.0957 8.33335 6.0957C9.52219 6.09687 10.4859 7.06054 10.487 8.24937Z" stroke="#141522" strokeWidth="1.5" strokeLinecap="round" strokeLinejoin="round"/>
<path id="Stroke 5" d="M22.7415 15.4429C21.6647 14.3345 19.5938 12.0957 17.3422 12.0957C15.0893 12.0957 13.7908 17.0342 11.6243 17.0342C9.45783 17.0342 7.48967 14.8012 5.75367 16.2327C4.01767 17.663 2.375 20.5879 2.375 20.5879" stroke="#141522" strokeWidth="1.5" strokeLinecap="round" strokeLinejoin="round"/>
</g>
</svg>
