<svg width="32" height="33" viewBox="0 0 32 33" fill="none" xmlns="http://www.w3.org/2000/svg">
<path d="M27.4935 11.365C26.0935 5.20497 20.7201 2.43164 16.0001 2.43164C16.0001 2.43164 16.0001 2.43164 15.9868 2.43164C11.2801 2.43164 5.89346 5.19164 4.49346 11.3516C2.93346 18.2316 7.14679 24.0583 10.9601 27.725C12.3735 29.085 14.1868 29.765 16.0001 29.765C17.8135 29.765 19.6268 29.085 21.0268 27.725C24.8401 24.0583 29.0535 18.245 27.4935 11.365ZM16.0001 18.045C13.6801 18.045 11.8001 16.165 11.8001 13.845C11.8001 11.525 13.6801 9.64497 16.0001 9.64497C18.3201 9.64497 20.2001 11.525 20.2001 13.845C20.2001 16.165 18.3201 18.045 16.0001 18.045Z" fill="#ED5B28"/>
</svg>
