<svg width="28" height="24" viewBox="0 0 28 24" fill="none" xmlns="http://www.w3.org/2000/svg">
<path d="M20.666 0.765625H7.33268C3.33268 0.765625 0.666016 2.76562 0.666016 7.43229V16.7656C0.666016 21.4323 3.33268 23.4323 7.33268 23.4323H20.666C24.666 23.4323 27.3327 21.4323 27.3327 16.7656V7.43229C27.3327 2.76562 24.666 0.765625 20.666 0.765625ZM21.2927 8.88562L17.1193 12.219C16.2393 12.9256 15.1193 13.2723 13.9993 13.2723C12.8793 13.2723 11.746 12.9256 10.8793 12.219L6.70602 8.88562C6.27935 8.53896 6.21268 7.89896 6.54602 7.47229C6.89268 7.04562 7.51935 6.96562 7.94602 7.31229L12.1193 10.6456C13.1327 11.459 14.8527 11.459 15.866 10.6456L20.0393 7.31229C20.466 6.96562 21.106 7.03229 21.4393 7.47229C21.786 7.89896 21.7193 8.53896 21.2927 8.88562Z" fill="#ED5B28"/>
</svg>
