<svg width="33" height="32" viewBox="0 0 33 32" fill="none" xmlns="http://www.w3.org/2000/svg">
<g id="vuesax/bold/routing">
<path id="Vector" d="M12.34 6.13297C11.2733 1.51964 4.32666 1.5063 3.25999 6.13297C2.63333 8.83964 4.35333 11.133 5.84666 12.5596C6.93999 13.5863 8.65999 13.5863 9.75333 12.5596C11.2467 11.133 12.9533 8.83964 12.34 6.13297ZM7.84666 8.2663C7.11333 8.2663 6.51333 7.6663 6.51333 6.93297C6.51333 6.19964 7.09999 5.59964 7.83333 5.59964H7.84666C8.59333 5.59964 9.17999 6.19964 9.17999 6.93297C9.17999 7.6663 8.59333 8.2663 7.84666 8.2663Z" fill="#ED5B28"/>
<path id="Vector_2" d="M29.7133 22.133C28.6467 17.5196 21.6733 17.5063 20.5933 22.133C19.9667 24.8396 21.6867 27.133 23.1933 28.5596C24.2867 29.5863 26.02 29.5863 27.1133 28.5596C28.62 27.133 30.34 24.8396 29.7133 22.133ZM25.2067 24.2663C24.4733 24.2663 23.8733 23.6663 23.8733 22.933C23.8733 22.1996 24.46 21.5996 25.1933 21.5996H25.2067C25.94 21.5996 26.54 22.1996 26.54 22.933C26.54 23.6663 25.94 24.2663 25.2067 24.2663Z" fill="#ED5B28"/>
<path id="Vector_3" d="M16.4999 26.3337H12.9265C11.3799 26.3337 10.0332 25.4003 9.49988 23.9603C8.95321 22.5203 9.35321 20.9337 10.5132 19.907L21.1665 10.587C21.8065 10.027 21.8199 9.26699 21.6332 8.74699C21.4332 8.22699 20.9265 7.66699 20.0732 7.66699H16.4999C15.9532 7.66699 15.4999 7.21366 15.4999 6.66699C15.4999 6.12033 15.9532 5.66699 16.4999 5.66699H20.0732C21.6199 5.66699 22.9665 6.60033 23.4999 8.04033C24.0465 9.48033 23.6465 11.067 22.4865 12.0937L11.8332 21.4137C11.1932 21.9737 11.1799 22.7337 11.3665 23.2537C11.5665 23.7737 12.0732 24.3337 12.9265 24.3337H16.4999C17.0465 24.3337 17.4999 24.787 17.4999 25.3337C17.4999 25.8803 17.0465 26.3337 16.4999 26.3337Z" fill="#ED5B28"/>
</g>
</svg>
