<svg width="33" height="32" viewBox="0 0 33 32" fill="none" xmlns="http://www.w3.org/2000/svg">
<g id="vuesax/bold/star">
<g id="star">
<path id="Vector" d="M21.02 6.94671L22.9 10.7067C23.1533 11.2267 23.8333 11.72 24.4067 11.8267L27.8067 12.3867C29.98 12.7467 30.4867 14.32 28.9267 15.8934L26.2733 18.5467C25.8333 18.9867 25.58 19.8534 25.7267 20.48L26.4867 23.76C27.0867 26.3467 25.7 27.36 23.42 26L20.2333 24.1067C19.66 23.76 18.7 23.76 18.1267 24.1067L14.94 26C12.66 27.3467 11.2733 26.3467 11.8733 23.76L12.6333 20.48C12.7533 19.84 12.5 18.9734 12.06 18.5334L9.40667 15.88C7.84667 14.32 8.35334 12.7467 10.5267 12.3734L13.9267 11.8134C14.5 11.72 15.18 11.2134 15.4333 10.6934L17.3133 6.93338C18.34 4.90671 19.9933 4.90671 21.02 6.94671Z" fill="#ED5B28"/>
<path id="Vector_2" d="M11.1667 7.66699H3.16675C2.62008 7.66699 2.16675 7.21366 2.16675 6.66699C2.16675 6.12033 2.62008 5.66699 3.16675 5.66699H11.1667C11.7134 5.66699 12.1667 6.12033 12.1667 6.66699C12.1667 7.21366 11.7134 7.66699 11.1667 7.66699Z" fill="#ED5B28"/>
<path id="Vector_3" d="M7.16675 26.333H3.16675C2.62008 26.333 2.16675 25.8797 2.16675 25.333C2.16675 24.7863 2.62008 24.333 3.16675 24.333H7.16675C7.71341 24.333 8.16675 24.7863 8.16675 25.333C8.16675 25.8797 7.71341 26.333 7.16675 26.333Z" fill="#ED5B28"/>
<path id="Vector_4" d="M4.50008 17H3.16675C2.62008 17 2.16675 16.5467 2.16675 16C2.16675 15.4533 2.62008 15 3.16675 15H4.50008C5.04675 15 5.50008 15.4533 5.50008 16C5.50008 16.5467 5.04675 17 4.50008 17Z" fill="#ED5B28"/>
</g>
</g>
</svg>
