<svg width="32" height="32" viewBox="0 0 32 32" fill="none" xmlns="http://www.w3.org/2000/svg">
<g id="vuesax/bold/task-square">
<g id="task-square">
<path id="Vector" d="M21.5866 2.66699H10.4133C5.55996 2.66699 2.66663 5.56033 2.66663 10.4137V21.587C2.66663 26.4403 5.55996 29.3337 10.4133 29.3337H21.5866C26.44 29.3337 29.3333 26.4403 29.3333 21.587V10.4137C29.3333 5.56033 26.44 2.66699 21.5866 2.66699ZM13.2933 19.867L10.2933 22.867C10.0933 23.067 9.83996 23.1603 9.58663 23.1603C9.33329 23.1603 9.06663 23.067 8.87996 22.867L7.87996 21.867C7.47996 21.4803 7.47996 20.8403 7.87996 20.4537C8.26663 20.067 8.89329 20.067 9.29329 20.4537L9.58663 20.747L11.88 18.4537C12.2666 18.067 12.8933 18.067 13.2933 18.4537C13.68 18.8403 13.68 19.4803 13.2933 19.867ZM13.2933 10.5337L10.2933 13.5337C10.0933 13.7337 9.83996 13.827 9.58663 13.827C9.33329 13.827 9.06663 13.7337 8.87996 13.5337L7.87996 12.5337C7.47996 12.147 7.47996 11.507 7.87996 11.1203C8.26663 10.7337 8.89329 10.7337 9.29329 11.1203L9.58663 11.4137L11.88 9.12033C12.2666 8.73366 12.8933 8.73366 13.2933 9.12033C13.68 9.50699 13.68 10.147 13.2933 10.5337ZM23.4133 22.1603H16.4133C15.8666 22.1603 15.4133 21.707 15.4133 21.1603C15.4133 20.6137 15.8666 20.1603 16.4133 20.1603H23.4133C23.9733 20.1603 24.4133 20.6137 24.4133 21.1603C24.4133 21.707 23.9733 22.1603 23.4133 22.1603ZM23.4133 12.827H16.4133C15.8666 12.827 15.4133 12.3737 15.4133 11.827C15.4133 11.2803 15.8666 10.827 16.4133 10.827H23.4133C23.9733 10.827 24.4133 11.2803 24.4133 11.827C24.4133 12.3737 23.9733 12.827 23.4133 12.827Z" fill="white"/>
</g>
</g>
</svg>
