<svg width="32" height="33" viewBox="0 0 32 33" fill="none" xmlns="http://www.w3.org/2000/svg">
<path d="M24.5269 9.46146C23.4673 9.46354 22.6057 8.60557 22.6037 7.54594C22.6016 6.48631 23.4596 5.62473 24.5197 5.62266C25.5798 5.62058 26.4414 6.47905 26.4435 7.53868C26.445 8.59831 25.587 9.45939 24.5269 9.46146Z" fill="white"/>
<path fillRule="evenodd" clipRule="evenodd" d="M16.0153 24.3133C11.4788 24.3221 7.79347 20.6518 7.78467 16.1142C7.77584 11.5776 11.4471 7.89172 15.9837 7.8829C20.5212 7.87409 24.2071 11.5465 24.2159 16.0826C24.2247 20.6202 20.5523 24.3045 16.0153 24.3133ZM15.9894 10.7658C13.0449 10.771 10.6613 13.1634 10.6664 16.1085C10.6721 19.0541 13.0651 21.4372 16.0096 21.4315C18.9552 21.4258 21.3388 19.0339 21.3331 16.0883C21.3274 13.1427 18.9344 10.7601 15.9894 10.7658Z" fill="white"/>
<path fillRule="evenodd" clipRule="evenodd" d="M5.49227 0.960605C6.50835 0.562467 7.67111 0.289782 9.37354 0.20943C11.0801 0.12753 11.625 0.108861 15.9692 0.10057C20.3144 0.0922784 20.8592 0.108858 22.5658 0.184544C24.2688 0.258157 25.4321 0.526698 26.4502 0.920691C27.5036 1.3266 28.3973 1.87301 29.2879 2.76C30.1786 3.64803 30.727 4.53866 31.1381 5.59051C31.5357 6.60763 31.8084 7.76938 31.8893 9.47287C31.9701 11.1789 31.9898 11.7233 31.9981 16.068C32.0064 20.4123 31.9888 20.9577 31.9141 22.6653C31.84 24.3672 31.572 25.5311 31.178 26.5487C30.7711 27.6021 30.2257 28.4958 29.3387 29.3865C28.4517 30.2776 27.5601 30.8256 26.5083 31.2372C25.4911 31.6343 24.3294 31.907 22.627 31.9883C20.9204 32.0692 20.3756 32.0884 16.0298 32.0967C11.6861 32.105 11.1413 32.0884 9.43473 32.0132C7.73177 31.9386 6.56796 31.6706 5.55033 31.2771C4.49695 30.8696 3.60323 30.3248 2.71261 29.4373C1.82148 28.5497 1.27251 27.6586 0.861944 26.6068C0.46381 25.5902 0.192143 24.4279 0.110764 22.7259C0.0293812 21.0188 0.0102068 20.4735 0.00191875 16.1292C-0.00640125 11.7844 0.0107156 11.2401 0.0853556 9.53351C0.160533 7.83003 0.427516 6.66671 0.821506 5.64804C1.22844 4.59516 1.77379 3.70194 2.66182 2.8108C3.54881 1.92019 4.44044 1.37066 5.49227 0.960605ZM6.58872 28.5891C7.15325 28.8064 8.0003 29.0656 9.56019 29.1335C11.2481 29.2066 11.7535 29.2226 16.0246 29.2143C20.2973 29.2066 20.8028 29.1884 22.4901 29.1091C24.0485 29.035 24.8955 28.7726 25.4585 28.5528C26.2055 28.261 26.7374 27.9121 27.2962 27.3527C27.855 26.7913 28.2008 26.2579 28.4901 25.5108C28.7078 24.9458 28.9665 24.0982 29.0344 22.5383C29.1086 20.8514 29.1241 20.3454 29.1158 16.0732C29.108 11.8021 29.0899 11.2961 29.0096 9.60868C28.9359 8.04982 28.6741 7.20274 28.4538 6.64028C28.162 5.89222 27.8141 5.36137 27.2532 4.80201C26.6923 4.24264 26.1589 3.89789 25.4108 3.60863C24.8473 3.39038 23.9992 3.13221 22.4404 3.06431C20.7524 2.99017 20.2465 2.97513 15.9743 2.98343C11.7032 2.99172 11.1978 3.00883 9.51041 3.08867C7.95107 3.16279 7.10502 3.42459 6.541 3.64492C5.7945 3.93678 5.26262 4.2836 4.70328 4.84504C4.14494 5.40646 3.79917 5.93887 3.50992 6.68745C3.29324 7.25148 3.03246 8.09959 2.9656 9.65845C2.89197 11.3464 2.87644 11.8524 2.88473 16.1235C2.89251 20.3957 2.91065 20.9017 2.98997 22.588C3.06306 24.1479 3.32691 24.994 3.54621 25.5585C3.83806 26.3045 4.18592 26.8364 4.74631 27.3958C5.30774 27.9531 5.84117 28.2999 6.58872 28.5891Z" fill="white"/>
</svg>
