<svg width="26" height="20" viewBox="0 0 26 20" fill="none" xmlns="http://www.w3.org/2000/svg">
<path d="M25.5 10.1914C25.5 10.5892 25.342 10.9708 25.0607 11.2521C24.7794 11.5334 24.3978 11.6914 24 11.6914H2C1.60218 11.6914 1.22064 11.5334 0.93934 11.2521C0.658035 10.9708 0.5 10.5892 0.5 10.1914C0.5 9.79358 0.658035 9.41205 0.93934 9.13075C1.22064 8.84944 1.60218 8.69141 2 8.69141H24C24.3978 8.69141 24.7794 8.84944 25.0607 9.13075C25.342 9.41205 25.5 9.79358 25.5 10.1914ZM2 3.69141H24C24.3978 3.69141 24.7794 3.53337 25.0607 3.25207C25.342 2.97076 25.5 2.58923 25.5 2.19141C25.5 1.79358 25.342 1.41205 25.0607 1.13075C24.7794 0.849441 24.3978 0.691406 24 0.691406H2C1.60218 0.691406 1.22064 0.849441 0.93934 1.13075C0.658035 1.41205 0.5 1.79358 0.5 2.19141C0.5 2.58923 0.658035 2.97076 0.93934 3.25207C1.22064 3.53337 1.60218 3.69141 2 3.69141ZM24 16.6914H2C1.60218 16.6914 1.22064 16.8494 0.93934 17.1307C0.658035 17.4121 0.5 17.7936 0.5 18.1914C0.5 18.5892 0.658035 18.9708 0.93934 19.2521C1.22064 19.5334 1.60218 19.6914 2 19.6914H24C24.3978 19.6914 24.7794 19.5334 25.0607 19.2521C25.342 18.9708 25.5 18.5892 25.5 18.1914C25.5 17.7936 25.342 17.4121 25.0607 17.1307C24.7794 16.8494 24.3978 16.6914 24 16.6914Z" fill="black"/>
</svg>
