<svg width="32" height="32" viewBox="0 0 32 32" fill="none" xmlns="http://www.w3.org/2000/svg">
<path d="M16 0.0986328C24.8365 0.0986328 32 7.26208 32 16.0986C32 24.2789 25.8607 31.0245 17.9384 31.9814V20.988L22.2667 20.988L23.1646 16.0986H17.9384V14.3694C17.9384 13.0775 18.1918 12.1832 18.7731 11.6117C19.3545 11.0403 20.2638 10.7919 21.5756 10.7919C21.9076 10.7919 22.2132 10.7952 22.4844 10.8018C22.8788 10.8114 23.2002 10.828 23.424 10.8515V6.41927C23.3346 6.39442 23.229 6.36957 23.1107 6.34512C22.8428 6.2897 22.5096 6.23629 22.1515 6.18938C21.4031 6.09134 20.5457 6.0217 19.9458 6.0217C17.5232 6.0217 15.6923 6.54 14.4143 7.61355C12.8718 8.90918 12.1348 11.0136 12.1348 13.9918V16.0986H8.83545V20.988H12.1348V31.6274C5.16576 29.8984 0 23.6023 0 16.0986C0 7.26208 7.16345 0.0986328 16 0.0986328Z" fill="white"/>
</svg>
