<svg width="9" height="17" viewBox="0 0 9 17" fill="none" xmlns="http://www.w3.org/2000/svg">
<path id="Vector" d="M9.0001 0.999614V15.9996C9.00022 16.148 8.9563 16.2932 8.87389 16.4166C8.79149 16.54 8.67431 16.6363 8.53719 16.6931C8.40008 16.7499 8.24918 16.7647 8.10362 16.7358C7.95806 16.7068 7.82437 16.6353 7.71948 16.5302L0.219476 9.03024C0.149744 8.96059 0.0944253 8.87787 0.0566821 8.78682C0.0189389 8.69577 -0.000488281 8.59818 -0.000488281 8.49961C-0.000488281 8.40105 0.0189389 8.30346 0.0566821 8.21241C0.0944253 8.12136 0.149744 8.03864 0.219476 7.96899L7.71948 0.468989C7.82437 0.363981 7.95806 0.292455 8.10362 0.263467C8.24918 0.234479 8.40008 0.249333 8.53719 0.306147C8.67431 0.362962 8.79149 0.459182 8.87389 0.582628C8.9563 0.706073 9.00022 0.851192 9.0001 0.999614Z" fill="#C09300"/>
</svg>
