<svg width="32" height="33" viewBox="0 0 32 33" fill="none" xmlns="http://www.w3.org/2000/svg">
<path d="M29.6313 0.0986328H2.3625C1.05625 0.0986328 0 1.12988 0 2.40488V29.7861C0 31.0611 1.05625 32.0986 2.3625 32.0986H29.6313C30.9375 32.0986 32 31.0611 32 29.7924V2.40488C32 1.12988 30.9375 0.0986328 29.6313 0.0986328ZM9.49375 27.3674H4.74375V12.0924H9.49375V27.3674ZM7.11875 10.0111C5.59375 10.0111 4.3625 8.77988 4.3625 7.26113C4.3625 5.74238 5.59375 4.51113 7.11875 4.51113C8.6375 4.51113 9.86875 5.74238 9.86875 7.26113C9.86875 8.77363 8.6375 10.0111 7.11875 10.0111ZM27.2687 27.3674H22.525V19.9424C22.525 18.1736 22.4937 15.8924 20.0562 15.8924C17.5875 15.8924 17.2125 17.8236 17.2125 19.8174V27.3674H12.475V12.0924H17.025V14.1799H17.0875C17.7188 12.9799 19.2688 11.7111 21.575 11.7111C26.3813 11.7111 27.2687 14.8736 27.2687 18.9861V27.3674Z" fill="white"/>
</svg>
